<svg version="1" xmlns="http://www.w3.org/2000/svg" width="682.667" height="682.667" viewBox="0 0 512.000000 512.000000"><path d="M227.5 2C159.4 12.9 103.9 58.6 79.9 123.5c-9.5 25.8-13.4 59.8-9.4 84 6.6 40.9 32.1 99.9 71.7 165.8 35.9 60 82.8 121.2 103.1 134.8 10.8 7.2 17.6 5.1 32.7-10.1 37.2-37.5 97.9-128.5 129-193.5 16.2-33.7 28.3-66.3 33.1-88.5 4.6-21.7 3.6-50.4-2.6-75C421 75.9 370.6 24.7 305 6.3 282.5 0 250.8-1.8 227.5 2zm48.8 42.1c29.2 4.4 55.2 16.5 78 36.2 19.6 17 36.4 44.3 44.2 71.6 4.3 15.5 5.9 42.6 3.5 59.1-6.5 43.2-31.1 80.8-68.2 104.3-30.7 19.5-70.9 26.6-107.3 19.2C165.8 322.1 119.3 272.9 110 211c-2.4-16.5-.8-43.6 3.5-59.1 11.6-40.7 38.4-73.8 75.3-92.7 14.7-7.6 27.5-11.9 44.2-14.7 9.4-1.6 33.8-1.9 43.3-.4z"/><path d="M193 91.9c-4.7 1.5-10.5 4.9-13.1 7.8-3.3 3.4-6.1 9.1-12.4 24.8l-4.8 12.1-7.7-2c-6.7-1.7-8.1-1.8-10.9-.7-1.7.8-3.8 2.6-4.6 4.2-1.9 3.6-1.9 14.2 0 17.9 2 3.8 6.2 7 9.3 7 1.8 0 2.3.4 1.9 1.7-.2 1-1.7 5.8-3.3 10.8l-2.8 9-.4 37.4c-.4 40.4-.3 41.1 5 45.6 2.8 2.4 3.6 2.5 15.5 2.5 11 0 12.8-.2 15.4-2.1 4.6-3.3 5.9-6.8 5.9-16.4V243h140v8.5c0 9.4 1.2 12.9 5.6 16.4 2.4 1.9 4 2.1 15.1 2.1 11 0 12.8-.2 15.4-2.1 5.8-4.1 5.9-4.7 5.9-41.2 0-36.2-.8-44.9-5.5-57.2l-2.4-6.5h2.8c3.4 0 7.6-3.1 9.6-7 1.9-3.7 1.9-14.3 0-17.9-.8-1.6-2.9-3.4-4.6-4.2-2.8-1.1-4.2-1-11 .7l-7.7 2-6.8-16.5c-7.3-17.8-10.2-21.8-18.6-26.3l-4.3-2.3-62-.2c-34.1-.1-63.1.2-64.5.6zm120.9 12c2.1 1.1 4.5 3.1 5.5 4.5 2.4 3.8 20.6 48.6 20.6 50.9 0 1.1-.7 2.9-1.7 3.9-1.5 1.7-5.4 1.8-82 1.8-53.5 0-81.1-.3-82.4-1-1.2-.7-1.9-2.1-1.9-4.1 0-3 17.5-47 20.5-51.6.8-1.2 3.2-3.2 5.3-4.2 3.5-1.9 5.9-2 58-2.1 51.8 0 54.5.1 58.1 1.9zm-102.5 89.7c2 2 2.3 21.3.4 23.2-.9.9-7 1.2-21.5 1.2H170l-1-2.6c-1.6-4.2-1.2-18.6.6-21.2 1.5-2.1 2-2.2 20.9-2.2 16.3 0 19.6.3 20.9 1.6zm130 0c2 2 2.3 21.3.4 23.2-.9.9-7 1.2-21.5 1.2H300l-1-2.6c-1.6-4.2-1.2-18.6.6-21.2 1.5-2.1 2-2.2 20.9-2.2 16.3 0 19.6.3 20.9 1.6z"/></svg>